<?xml version="1.0" standalone="no"?>
<!DOCTYPE svg PUBLIC "-//W3C//DTD SVG 20010904//EN"
 "http://www.w3.org/TR/2001/REC-SVG-20010904/DTD/svg10.dtd">
<svg version="1.0" xmlns="http://www.w3.org/2000/svg"
 width="1024.000000pt" height="1024.000000pt" viewBox="0 0 1024.000000 1024.000000"
 preserveAspectRatio="xMidYMid meet">
<metadata>
Created by potrace 1.14, written by Peter Selinger 2001-2017
</metadata>
<g transform="translate(0.000000,1024.000000) scale(0.100000,-0.100000)"
fill="#000000" stroke="none">
<path d="M4969 8425 c-2 -1 -67 -6 -144 -9 -77 -4 -153 -9 -170 -11 -16 -2
-67 -7 -111 -10 -45 -3 -93 -8 -105 -10 -13 -2 -53 -6 -89 -9 -54 -5 -155 -18
-400 -51 -14 -2 -68 -11 -120 -20 -166 -28 -181 -31 -280 -52 -41 -8 -88 -17
-105 -20 -48 -8 -459 -112 -533 -135 -457 -144 -790 -307 -1131 -556 -98 -71
-146 -109 -248 -197 -117 -101 -284 -268 -398 -398 -183 -208 -413 -580 -501
-807 -9 -25 -21 -49 -26 -54 -4 -6 -8 -16 -8 -24 0 -8 -7 -28 -14 -45 -30 -65
-107 -314 -130 -422 -1 -5 -8 -37 -16 -70 -7 -33 -13 -68 -14 -78 0 -10 -6
-21 -12 -25 -6 -4 -15 -38 -19 -77 -5 -38 -10 -81 -11 -95 -6 -47 -5 -305 1
-355 3 -27 8 -68 10 -90 3 -22 7 -50 9 -61 2 -12 7 -39 10 -60 30 -186 144
-480 268 -692 47 -80 145 -230 158 -242 3 -3 28 -34 55 -70 159 -209 432 -478
695 -685 41 -32 77 -62 80 -65 7 -9 231 -168 320 -227 463 -310 1048 -573
1590 -718 88 -23 339 -82 385 -91 11 -1 34 -6 50 -9 80 -14 204 -35 240 -39
22 -3 72 -10 110 -15 39 -6 102 -13 140 -16 39 -3 84 -8 102 -10 169 -24 740
-24 999 -1 72 7 168 17 194 21 14 2 50 7 80 10 30 3 66 8 80 10 14 3 39 7 55
9 63 9 121 19 140 23 11 2 54 10 95 18 41 7 118 23 170 35 52 12 103 23 112
25 264 58 730 209 1053 340 680 276 1149 567 1525 944 250 251 421 492 540
762 23 52 46 103 51 114 51 109 124 388 153 585 26 171 26 479 1 670 -7 54
-45 241 -55 275 -104 338 -193 532 -357 778 -140 212 -252 346 -473 567 -182
183 -216 213 -370 336 -535 425 -1102 692 -1965 923 -99 27 -198 52 -220 56
-22 5 -44 9 -50 11 -49 12 -359 64 -415 69 -14 2 -51 5 -83 9 -31 3 -83 9
-115 12 -31 2 -77 7 -102 10 -52 5 -676 14 -681 9z m101 -559 c126 -23 290
-77 397 -131 83 -41 219 -127 272 -170 206 -169 391 -371 569 -622 138 -194
272 -441 367 -673 110 -268 245 -731 290 -995 3 -16 7 -41 10 -55 9 -43 33
-193 39 -240 13 -107 17 -137 21 -175 26 -252 27 -804 1 -955 -3 -14 -8 -47
-11 -75 -17 -126 -28 -183 -66 -325 -122 -457 -374 -777 -744 -942 -103 -47
-249 -90 -380 -113 -132 -23 -441 -27 -575 -6 -228 35 -429 111 -602 228 -159
107 -336 290 -522 537 -83 111 -226 323 -271 403 -127 225 -171 301 -181 313
-15 18 -77 218 -174 565 -18 64 -88 339 -95 375 -2 8 -14 69 -28 135 -14 66
-28 134 -31 150 -16 84 -46 265 -51 305 -3 25 -8 56 -10 70 -8 47 -18 174 -31
370 -13 213 -9 528 10 685 33 274 91 484 187 682 183 376 483 574 994 658 17
2 68 7 115 11 47 4 86 8 88 9 12 10 332 -5 412 -19z"/>
</g>
</svg>
